<?xml version="1.0" standalone="no"?>
<!DOCTYPE svg PUBLIC "-//W3C//DTD SVG 20010904//EN"
 "http://www.w3.org/TR/2001/REC-SVG-20010904/DTD/svg10.dtd">
<svg version="1.0" xmlns="http://www.w3.org/2000/svg"
 width="2240.000000pt" height="2240.000000pt" viewBox="0 0 2240.000000 2240.000000"
 preserveAspectRatio="xMidYMid meet">
<metadata>
Created by potrace 1.14, written by Peter Selinger 2001-2017
</metadata>
<g transform="translate(0.000000,2240.000000) scale(0.100000,-0.100000)"
fill="#000000" stroke="none">
<path d="M3168 15595 c-2 -2 -23 -6 -47 -10 -23 -3 -54 -10 -67 -15 -13 -5
-24 -6 -24 -3 0 4 -5 2 -12 -5 -7 -7 -18 -12 -26 -12 -16 0 -164 -72 -184 -90
-7 -6 -58 -40 -113 -75 -55 -35 -104 -68 -110 -72 -5 -5 -41 -28 -80 -53 -38
-25 -71 -48 -73 -52 -2 -5 -8 -8 -13 -8 -5 0 -69 -40 -143 -90 -75 -49 -140
-90 -145 -90 -5 0 -11 -4 -13 -8 -1 -4 -52 -39 -111 -77 -60 -39 -115 -76
-122 -82 -8 -7 -16 -13 -19 -13 -8 0 -101 -64 -104 -72 -2 -5 -10 -8 -17 -8
-7 0 -27 -12 -44 -26 -17 -14 -31 -23 -31 -20 0 3 -9 -3 -20 -14 -11 -11 -26
-20 -34 -20 -8 0 -16 -3 -18 -7 -5 -11 -97 -73 -108 -73 -6 0 -10 -4 -10 -9 0
-5 -13 -14 -30 -21 -17 -7 -30 -16 -30 -21 0 -5 -5 -9 -11 -9 -6 0 -21 -8 -34
-17 -26 -20 -41 -31 -105 -72 -91 -58 -355 -231 -365 -239 -5 -4 -35 -23 -65
-42 -30 -19 -57 -37 -60 -40 -3 -4 -16 -14 -30 -23 -24 -17 -137 -125 -175
-169 -12 -13 -38 -48 -60 -78 -22 -30 -44 -58 -50 -62 -5 -4 -6 -8 -2 -8 5 0
-2 -14 -14 -31 -34 -49 -114 -221 -124 -269 -2 -8 -8 -28 -15 -45 -6 -16 -11
-30 -10 -30 1 0 -1 -11 -4 -25 -41 -179 -50 -421 -21 -590 14 -88 42 -196 72
-280 22 -60 103 -217 139 -267 16 -22 36 -51 44 -63 27 -42 170 -188 223 -228
29 -23 146 -102 262 -176 116 -75 215 -139 220 -143 6 -5 35 -24 65 -43 30
-19 57 -38 58 -42 2 -5 9 -8 15 -8 7 0 25 -11 41 -25 16 -14 35 -25 42 -25 7
0 14 -3 16 -8 2 -4 41 -32 88 -61 47 -30 87 -58 88 -63 2 -4 8 -6 13 -2 5 3 9
0 9 -5 0 -6 7 -11 15 -11 8 0 15 -4 15 -10 0 -5 7 -10 15 -10 8 0 15 -3 15 -8
0 -4 20 -18 45 -32 25 -14 45 -28 45 -32 0 -5 6 -8 14 -8 8 0 21 -6 28 -12 17
-16 186 -128 193 -128 3 0 15 -9 27 -20 12 -11 28 -20 35 -20 7 0 13 -4 13
-10 0 -5 6 -10 14 -10 7 0 19 -7 26 -15 7 -9 28 -23 46 -31 19 -9 34 -20 34
-25 0 -5 5 -9 10 -9 6 0 23 -9 38 -19 76 -54 214 -141 221 -141 5 0 11 -3 13
-8 2 -4 57 -42 123 -84 66 -43 125 -81 130 -85 29 -23 126 -83 134 -83 5 0 11
-3 13 -7 3 -9 44 -36 259 -174 171 -111 164 -106 219 -143 137 -91 296 -193
303 -194 4 -1 16 -10 27 -20 11 -10 33 -25 48 -33 15 -8 29 -16 32 -19 6 -6
91 -63 105 -70 28 -14 130 -84 133 -92 2 -4 8 -8 13 -8 6 0 37 -18 69 -40 32
-22 63 -40 69 -40 5 0 11 -3 13 -8 2 -4 45 -34 95 -67 51 -33 155 -101 230
-150 76 -50 214 -139 306 -199 93 -60 176 -116 185 -125 8 -9 16 -14 16 -13 2
7 56 -21 56 -28 0 -4 12 -12 27 -19 25 -12 29 -10 51 16 88 110 249 432 268
541 3 15 8 29 12 32 4 3 8 14 10 25 2 11 10 49 18 84 9 35 16 90 17 122 1 32
5 59 8 59 7 0 3 244 -5 295 -4 22 -12 65 -19 95 -6 30 -11 61 -10 68 0 6 -3
12 -8 12 -5 0 -9 7 -9 15 0 16 -60 156 -70 165 -3 3 -12 20 -19 38 -8 17 -17
32 -22 32 -5 0 -9 5 -9 11 0 6 -6 17 -12 24 -7 8 -29 35 -48 60 -39 52 -142
160 -211 220 -57 50 -134 103 -371 258 -103 67 -222 145 -264 172 -42 28 -84
55 -93 60 -9 6 -47 31 -86 56 -38 25 -106 69 -150 97 -44 28 -85 56 -92 62 -7
5 -24 15 -38 22 -14 6 -25 15 -25 20 0 4 -6 8 -13 8 -7 0 -23 9 -35 20 -12 11
-24 20 -27 20 -3 0 -53 32 -110 70 -57 39 -109 70 -115 70 -5 0 -10 3 -10 8 0
4 -30 25 -66 47 -36 22 -72 46 -79 53 -8 6 -16 12 -18 12 -6 0 -197 124 -214
139 -7 6 -15 11 -17 11 -3 0 -41 24 -84 53 -43 28 -90 58 -105 66 -15 8 -27
18 -27 23 0 4 -4 8 -9 8 -9 0 -531 337 -541 349 -3 3 -22 15 -42 26 -21 11
-38 23 -38 27 0 5 -4 8 -9 8 -8 0 -38 19 -294 186 l-109 71 39 24 c21 13 124
79 228 148 363 237 470 307 770 502 50 32 149 97 220 143 72 47 170 111 219
141 48 31 93 60 100 66 6 5 52 36 102 69 77 51 141 109 224 205 9 11 27 40 40
65 12 25 30 53 39 64 9 10 15 20 14 22 -2 2 -2 6 -2 9 1 3 2 8 3 13 1 4 9 30
19 57 9 28 19 64 23 80 10 42 10 274 1 310 -5 17 -10 39 -12 50 -5 27 -55 159
-63 165 -4 3 -14 19 -22 35 -42 86 -158 206 -264 272 -48 30 -159 80 -198 89
-10 2 -27 6 -38 9 -11 3 -30 7 -42 10 -26 7 -225 15 -230 10z"/>
<path d="M9477 13880 c-14 -11 -30 -20 -36 -20 -6 0 -11 -4 -11 -10 0 -5 -4
-10 -9 -10 -5 0 -50 -26 -101 -57 l-91 -57 4 -830 c1 -457 7 -844 11 -861 4
-16 8 -38 9 -47 1 -10 4 -18 7 -18 3 0 6 -10 6 -23 3 -42 66 -158 113 -206 84
-87 187 -133 331 -146 96 -10 212 -6 295 9 49 9 154 50 200 77 l50 30 -2 127
c-3 165 -2 159 -11 147 -10 -15 -77 -53 -102 -60 -3 0 -20 -9 -37 -18 -18 -10
-33 -16 -33 -13 0 2 -21 -3 -47 -11 -59 -18 -219 -25 -271 -12 -129 34 -205
113 -227 234 -4 22 -8 435 -9 917 0 483 -4 878 -7 878 -4 0 -18 -9 -32 -20z"/>
<path d="M16160 13889 c0 -5 -4 -8 -9 -4 -5 3 -15 -1 -23 -8 -7 -7 -49 -35
-93 -61 -44 -27 -95 -58 -112 -70 l-33 -21 0 -340 -1 -340 -27 35 c-105 135
-242 229 -396 272 -105 29 -150 33 -276 24 -156 -10 -243 -36 -390 -117 -73
-40 -187 -147 -242 -227 -17 -26 -36 -50 -41 -53 -4 -3 -10 -12 -11 -20 -2 -8
-18 -45 -35 -83 -18 -38 -34 -77 -36 -85 -2 -9 -8 -34 -13 -56 -6 -22 -14 -53
-18 -70 -11 -52 -14 -306 -4 -345 6 -21 12 -50 14 -66 6 -41 36 -137 47 -148
5 -6 9 -15 9 -22 0 -40 122 -211 199 -278 13 -12 37 -33 55 -48 17 -15 39 -30
49 -34 9 -3 17 -10 17 -15 0 -5 6 -9 12 -9 7 0 38 -12 68 -27 68 -33 112 -50
155 -59 6 -1 24 -5 40 -9 75 -16 220 -21 305 -10 183 22 366 128 493 285 15
19 27 28 28 19 0 -8 0 -74 -1 -146 -1 -114 1 -133 15 -133 8 -1 58 -1 110 -1
52 0 111 0 130 1 l35 0 0 1140 c-1 731 -4 1140 -10 1140 -6 0 -10 -5 -10 -11z
m-760 -789 c67 -14 84 -18 88 -20 1 -2 5 -3 10 -4 31 -5 150 -78 194 -120 55
-52 128 -150 128 -173 0 -7 5 -13 10 -13 6 0 9 -3 8 -7 0 -5 1 -15 5 -23 7
-20 26 -81 34 -111 3 -13 7 -73 9 -134 3 -140 -10 -201 -72 -329 -36 -75 -152
-195 -222 -230 -29 -14 -54 -26 -57 -26 -3 0 -18 -6 -33 -13 -15 -8 -45 -18
-67 -22 -22 -5 -47 -10 -55 -12 -27 -6 -133 -5 -185 1 -69 9 -153 36 -197 63
-21 13 -42 23 -48 23 -5 0 -10 5 -10 10 0 6 -6 10 -12 10 -16 1 -118 103 -118
119 0 6 -4 11 -9 11 -14 0 -85 147 -96 200 -23 114 -26 219 -8 315 46 245 213
426 443 479 72 17 191 19 260 6z"/>
<path d="M21418 13888 c-16 -5 -28 -14 -28 -19 0 -5 -5 -9 -11 -9 -6 0 -31
-13 -56 -30 -24 -16 -47 -30 -52 -30 -4 0 -16 -8 -27 -17 -11 -10 -35 -26 -54
-36 l-35 -17 1 -340 c0 -311 -4 -374 -21 -321 -15 49 -202 207 -275 233 -17 5
-30 14 -30 19 0 5 -3 8 -7 7 -5 -1 -35 7 -68 17 -33 10 -67 20 -75 23 -35 8
-260 10 -309 2 -135 -23 -256 -73 -362 -151 -138 -102 -211 -199 -299 -404
-32 -73 -54 -214 -53 -340 1 -78 8 -180 13 -180 1 0 3 -9 5 -20 10 -62 44
-169 67 -209 6 -11 22 -40 36 -65 36 -66 112 -160 167 -206 60 -50 111 -85
124 -85 5 0 11 -4 13 -8 8 -19 196 -92 253 -98 17 -1 48 -6 70 -9 88 -13 270
-4 307 16 10 5 18 7 18 4 0 -5 83 25 130 47 67 32 165 106 227 171 37 40 67
70 66 68 -1 -2 2 -12 8 -22 5 -11 6 -19 2 -19 -4 0 -8 -54 -8 -120 l0 -120 25
-1 c99 -3 253 1 259 6 3 4 6 517 6 1141 0 624 0 1134 0 1133 0 0 -12 -5 -27
-11z m-705 -799 c114 -32 175 -67 259 -150 64 -62 85 -92 118 -162 23 -48 42
-100 43 -117 1 -16 4 -30 7 -30 13 0 18 -207 6 -275 -18 -108 -83 -239 -158
-321 -41 -44 -218 -157 -218 -139 0 3 -8 1 -17 -4 -25 -13 -81 -24 -130 -25
-24 -1 -43 -4 -43 -8 0 -3 -12 -5 -27 -3 -16 2 -55 6 -88 10 -193 19 -378 152
-455 328 -44 100 -60 186 -56 312 3 71 11 140 20 170 19 58 71 169 95 199 17
21 110 113 133 131 28 23 122 68 131 63 1 -1 12 4 23 10 12 6 36 14 55 17 18
3 35 8 37 10 13 12 202 1 265 -16z"/>
<path d="M4475 13810 c-11 -4 -28 -6 -37 -4 -10 1 -18 -3 -18 -9 0 -5 -3 -8
-6 -4 -8 8 -103 -26 -174 -62 -32 -16 -113 -66 -181 -110 -67 -45 -126 -81
-131 -81 -4 0 -8 -4 -8 -10 0 -5 -4 -10 -9 -10 -8 0 -284 -178 -307 -199 -7
-5 -15 -7 -18 -4 -3 4 -6 1 -6 -5 0 -7 -7 -12 -15 -12 -8 0 -15 -4 -15 -10 0
-5 -7 -10 -15 -10 -8 0 -15 -4 -15 -10 0 -5 -4 -10 -10 -10 -11 0 -103 -62
-108 -72 -2 -5 -8 -8 -13 -8 -5 0 -58 -33 -118 -73 l-108 -72 79 -50 c44 -28
85 -55 92 -61 6 -5 30 -21 54 -34 23 -13 42 -27 42 -32 0 -4 4 -8 10 -8 5 0
71 -40 146 -90 75 -49 140 -90 144 -90 5 0 10 -4 12 -8 2 -4 32 -26 68 -48 36
-23 130 -84 210 -136 270 -178 369 -217 559 -222 263 -8 500 109 657 324 62
84 118 209 130 288 3 20 8 51 12 67 14 59 5 194 -19 300 -21 90 -100 243 -158
305 -9 9 -23 26 -32 36 -71 86 -255 192 -378 219 -12 3 -31 8 -43 11 -35 9
-251 13 -273 4z"/>
<path d="M9964 13375 c-22 -6 -54 -21 -70 -32 -82 -57 -155 -103 -163 -103 -5
0 -11 -4 -13 -8 -1 -5 -23 -20 -47 -34 l-44 -26 134 -89 c198 -131 204 -134
268 -135 228 -3 311 284 118 406 -52 32 -120 40 -183 21z"/>
<path d="M11140 13378 c0 -4 -8 -5 -18 -3 -10 2 -38 -1 -62 -6 -25 -5 -61 -12
-80 -14 -19 -3 -39 -10 -44 -15 -6 -6 -19 -10 -31 -10 -12 0 -25 -4 -30 -9 -6
-4 -31 -16 -57 -26 -27 -10 -48 -21 -48 -26 0 -4 -9 -10 -20 -14 -42 -13 -163
-120 -215 -190 -17 -22 -36 -46 -42 -53 -7 -7 -13 -19 -13 -27 0 -7 -4 -15 -8
-17 -14 -5 -68 -127 -91 -203 -25 -84 -30 -113 -36 -226 -2 -48 -5 -91 -6 -95
-1 -5 -1 -11 0 -14 2 -3 4 -25 6 -49 3 -25 7 -61 11 -80 3 -20 7 -43 8 -51 4
-31 50 -157 74 -205 58 -114 161 -232 268 -307 55 -39 154 -92 154 -83 0 3 13
-1 29 -10 45 -23 138 -45 221 -52 150 -12 226 -4 385 44 70 22 200 110 271
185 38 40 70 72 73 71 3 -2 5 -61 5 -132 1 -71 4 -133 8 -136 6 -6 150 -9 258
-6 20 1 20 8 20 866 l0 866 -142 -3 -143 -3 0 -142 c0 -79 -3 -143 -6 -143 -4
0 -15 12 -24 26 -46 71 -182 179 -279 224 -92 41 -152 57 -251 65 -113 10
-145 10 -145 3z m287 -296 c68 -23 114 -45 157 -76 44 -31 126 -108 126 -118
0 -5 9 -18 19 -30 27 -28 66 -111 85 -178 37 -132 37 -271 0 -399 -16 -56 -63
-153 -76 -159 -5 -2 -8 -9 -8 -15 -1 -15 -54 -73 -111 -118 -46 -38 -139 -93
-139 -83 0 4 -6 2 -12 -4 -7 -5 -31 -15 -53 -21 -191 -50 -395 -16 -535 88
-43 32 -130 119 -130 130 0 5 -9 19 -20 33 -48 62 -96 238 -94 343 4 171 40
286 127 405 72 99 171 167 302 206 94 29 269 27 362 -4z"/>
<path d="M17337 13384 c-2 -3 -31 -7 -63 -9 -105 -8 -131 -13 -208 -40 -79
-27 -175 -77 -236 -123 -54 -40 -157 -147 -165 -171 -3 -11 -10 -21 -15 -21
-4 0 -15 -15 -24 -32 -9 -18 -25 -46 -34 -63 -16 -26 -51 -112 -59 -140 -1 -5
-7 -28 -13 -50 -22 -86 -25 -115 -25 -255 0 -161 6 -203 39 -305 31 -92 42
-117 91 -195 118 -191 299 -319 524 -371 110 -25 282 -27 381 -3 14 3 32 7 40
8 8 2 28 8 43 15 16 6 31 11 35 11 16 0 131 65 172 98 66 52 75 61 125 120
l45 54 0 -146 c0 -132 2 -146 18 -147 76 -2 254 1 261 5 5 3 8 78 7 167 0 88
2 163 7 166 4 2 4 9 0 15 -9 16 -10 299 0 305 4 2 4 9 0 15 -9 16 -10 299 0
305 4 2 4 9 0 16 -8 14 -9 258 0 280 4 10 3 17 -1 17 -4 0 -7 52 -7 115 0 63
3 115 7 115 4 0 3 12 0 28 -4 15 -7 62 -6 105 l1 77 -144 0 -143 0 0 -146 0
-147 -81 87 c-44 47 -87 86 -94 86 -7 0 -15 4 -17 9 -8 23 -163 97 -243 117
-54 13 -59 14 -125 20 -36 3 -70 7 -77 9 -6 2 -13 2 -16 -1z m163 -284 c68
-13 185 -57 205 -77 8 -8 15 -12 15 -9 0 2 12 -5 26 -17 162 -136 234 -284
239 -497 5 -193 -46 -337 -165 -460 -119 -123 -264 -182 -445 -181 -98 1 -240
35 -276 67 -9 8 -19 11 -22 7 -4 -3 -7 -1 -7 5 0 7 -7 12 -15 12 -29 0 -159
143 -196 215 -31 60 -49 107 -48 125 0 3 -5 18 -11 35 -17 44 -19 201 -4 280
19 98 19 97 31 125 6 14 16 38 22 53 26 68 124 181 196 228 63 41 157 78 230
92 47 8 174 7 225 -3z"/>
<path d="M8249 13376 c-2 -2 -22 -6 -44 -10 -22 -3 -55 -10 -72 -15 -40 -12
-165 -74 -188 -93 -115 -96 -167 -205 -171 -360 -2 -97 7 -141 44 -218 28 -59
131 -152 217 -195 43 -22 81 -40 84 -41 3 0 17 -5 31 -11 14 -6 106 -43 204
-83 208 -83 220 -89 263 -127 87 -78 91 -220 9 -305 -30 -32 -125 -78 -176
-86 -80 -12 -255 -5 -277 11 -7 5 -13 7 -13 4 0 -10 -103 24 -170 57 -83 41
-108 56 -139 84 -14 12 -29 22 -33 22 -3 0 -20 14 -37 31 -17 17 -31 29 -32
27 -4 -12 -3 -301 1 -306 19 -25 185 -112 212 -112 8 0 18 -4 23 -8 10 -8 83
-27 140 -37 17 -2 48 -7 70 -11 34 -5 200 -9 215 -4 3 1 19 3 35 5 55 5 110
17 150 31 22 8 45 16 50 18 95 27 223 140 274 241 53 105 70 257 40 355 -16
49 -54 114 -92 153 -74 79 -134 110 -431 228 -291 116 -329 137 -361 205 -31
65 -21 168 22 216 28 33 95 78 104 72 5 -3 9 0 9 7 0 7 3 10 6 6 3 -3 25 0 47
7 49 14 195 12 237 -4 3 -1 10 -3 15 -4 77 -14 247 -97 319 -156 27 -22 50
-40 52 -40 2 0 4 66 4 148 l0 147 -48 31 c-118 76 -288 121 -469 122 -66 1
-122 0 -124 -2z"/>
<path d="M13281 13359 c-164 -42 -272 -114 -391 -258 l-35 -43 1 146 1 146
-142 0 -141 0 0 -865 c0 -780 1 -865 15 -865 26 -1 224 -1 249 -1 19 1 22 6
19 29 -2 15 -1 37 4 48 4 12 5 25 1 28 -10 11 -11 39 -1 57 5 10 5 20 1 23 -5
3 -7 31 -5 63 2 32 4 63 4 68 0 6 -2 24 -4 40 -3 17 0 36 5 43 7 8 7 12 0 12
-6 0 -8 12 -6 28 5 31 5 26 1 117 -2 39 0 78 5 87 5 10 4 19 -2 23 -11 7 -9
33 3 53 5 6 4 12 -1 12 -11 0 -9 60 2 78 3 6 2 13 -2 16 -7 4 -8 101 -2 101 1
0 3 16 4 35 9 99 58 237 111 309 12 16 107 112 128 128 81 64 270 103 383 79
16 -3 40 -8 54 -11 40 -8 126 -53 155 -83 68 -67 119 -174 132 -274 4 -29 7
-290 7 -580 1 -345 4 -528 11 -529 6 0 71 -1 145 -1 l135 -1 -1 549 c-2 549
-4 624 -24 699 -6 22 -12 47 -14 55 -42 162 -181 333 -323 395 -21 9 -47 21
-58 26 -94 40 -305 49 -424 18z"/>
<path d="M19537 13374 c-1 -1 -18 -5 -37 -7 -19 -3 -35 -6 -35 -7 0 -1 -11 -4
-25 -6 -34 -6 -179 -78 -214 -106 -61 -49 -131 -126 -173 -190 -24 -38 -45
-68 -46 -68 -1 0 -2 80 -2 178 l0 177 -142 2 -141 2 -4 -50 c-1 -27 0 -49 3
-49 4 0 3 -18 -1 -40 -4 -22 -4 -40 -1 -40 4 0 4 -25 1 -55 -3 -30 -3 -55 1
-55 4 0 3 -16 -1 -35 -5 -20 -4 -33 1 -29 5 3 5 -6 -1 -20 -5 -14 -5 -28 -1
-31 5 -3 6 -20 2 -38 -5 -18 -5 -41 -1 -51 3 -10 3 -42 0 -72 -3 -30 -4 -57
-2 -59 8 -7 8 -75 0 -75 -4 0 -3 -13 2 -30 5 -17 5 -32 0 -35 -5 -3 -6 -14 -2
-25 4 -11 5 -50 2 -86 -3 -36 -4 -67 -1 -69 7 -8 6 -75 -1 -75 -4 0 -3 -13 2
-30 5 -17 5 -32 0 -35 -5 -3 -6 -14 -2 -25 4 -11 5 -50 2 -86 -3 -36 -4 -67
-1 -69 7 -8 6 -75 -1 -75 -4 0 -3 -13 2 -30 5 -17 5 -32 0 -35 -5 -3 -6 -16
-2 -28 5 -12 5 -38 2 -57 -3 -19 -3 -49 1 -66 3 -17 3 -38 -2 -46 -4 -7 -4
-20 1 -28 4 -7 5 -23 0 -35 -5 -12 -4 -28 0 -35 5 -8 6 -18 4 -22 -6 -9 18
-10 166 -8 57 0 107 3 110 6 3 3 5 213 6 467 0 254 3 471 7 482 3 11 9 35 12
53 3 19 17 61 30 94 88 217 269 339 498 336 l82 -1 0 124 c0 68 4 130 8 137 5
6 4 12 -2 12 -5 0 -8 11 -6 25 2 25 0 26 -46 24 -27 -2 -50 -4 -52 -5z"/>
<path d="M373 11370 c-13 -15 -23 -33 -23 -39 0 -6 -4 -11 -10 -11 -5 0 -10
-4 -10 -9 0 -6 -13 -29 -29 -53 -54 -81 -162 -302 -176 -363 -2 -5 -4 -17 -6
-25 -2 -8 -7 -17 -11 -20 -4 -3 -10 -17 -12 -30 -2 -14 -5 -25 -6 -25 -1 0 -3
-7 -5 -15 -1 -8 -10 -49 -19 -90 -26 -115 -28 -144 -29 -300 -1 -168 6 -223
39 -339 24 -84 96 -243 121 -269 7 -7 13 -16 13 -20 0 -4 11 -20 25 -36 14
-16 25 -33 25 -39 0 -12 246 -257 259 -257 5 0 16 -6 23 -13 12 -12 97 -69
318 -212 41 -27 139 -91 218 -142 78 -51 147 -93 151 -93 5 0 11 -4 13 -8 3
-9 138 -99 181 -120 15 -8 27 -18 27 -23 0 -5 4 -9 9 -9 6 0 29 -13 53 -29
121 -80 284 -187 293 -191 5 -3 51 -32 100 -64 50 -33 133 -87 185 -121 52
-34 175 -114 273 -178 98 -65 181 -117 186 -117 4 0 16 -9 26 -20 10 -11 22
-20 27 -20 5 0 14 -5 21 -11 7 -6 71 -48 142 -94 72 -46 135 -87 141 -92 5 -4
19 -13 30 -20 106 -66 170 -108 172 -115 2 -4 10 -8 18 -8 8 0 14 -4 14 -9 0
-5 10 -13 22 -17 12 -3 26 -11 32 -16 24 -21 268 -178 277 -178 5 0 9 -4 9
-10 0 -5 5 -10 10 -10 6 0 16 -5 23 -10 25 -22 226 -150 236 -150 5 0 11 -4
13 -8 4 -10 188 -132 200 -132 4 0 8 -4 8 -9 0 -5 8 -11 18 -15 24 -8 56 -29
65 -43 4 -7 12 -13 17 -13 5 0 60 -33 123 -74 106 -69 238 -145 255 -146 4 0
27 -7 52 -15 67 -21 151 -33 255 -36 31 0 116 13 169 27 34 8 66 17 71 18 60
12 216 111 289 183 74 73 175 230 191 298 3 11 12 45 20 75 9 30 17 85 18 122
1 38 5 68 8 68 6 0 4 32 -6 98 -8 53 -13 77 -15 77 -1 0 -3 14 -5 30 -6 40
-58 168 -85 204 -11 16 -20 32 -20 35 0 10 -43 59 -111 126 -74 73 -78 76
-134 110 -22 13 -41 28 -43 32 -2 4 -8 8 -13 8 -6 0 -15 5 -22 10 -7 6 -68 47
-137 91 -205 134 -235 153 -240 159 -3 3 -22 14 -42 24 -21 11 -38 23 -38 28
0 4 -5 8 -10 8 -12 0 -73 41 -78 53 -2 4 -8 7 -13 7 -8 0 -208 128 -219 140
-3 3 -37 24 -76 47 -39 23 -76 49 -84 57 -7 9 -16 16 -21 16 -5 0 -77 45 -160
100 -84 55 -155 100 -160 100 -4 0 -12 6 -16 13 -4 6 -24 21 -43 32 -19 10
-120 75 -225 144 -211 140 -209 138 -256 165 -19 10 -36 22 -39 25 -3 4 -61
42 -130 86 -69 44 -134 88 -144 97 -11 10 -26 18 -33 18 -7 0 -13 5 -13 10 0
6 -7 10 -15 10 -8 0 -15 5 -15 10 0 6 -4 10 -9 10 -5 0 -49 26 -98 58 -48 32
-131 86 -183 120 -52 33 -100 66 -107 71 -7 6 -15 11 -18 11 -3 0 -11 5 -18
10 -28 23 -303 202 -319 207 -10 3 -18 8 -18 12 0 3 -20 17 -45 31 -25 14 -45
28 -45 32 0 5 -4 8 -10 8 -5 0 -56 31 -112 68 -57 38 -118 77 -135 87 -18 11
-33 23 -33 27 0 4 -3 7 -7 6 -5 -1 -82 46 -173 106 -91 60 -185 121 -210 136
-25 16 -52 35 -62 43 -9 9 -19 13 -22 10 -3 -4 -6 -2 -6 4 0 5 -11 15 -25 21
-14 7 -31 17 -38 22 -7 6 -61 43 -122 82 -141 90 -256 165 -275 178 -64 44
-368 240 -372 239 -2 0 -13 -13 -25 -29z"/>
<path d="M9535 10230 c1 -621 4 -1132 8 -1136 7 -8 265 -10 272 -3 2 3 5 229
7 504 3 436 6 505 21 543 9 23 14 42 12 42 -8 0 52 132 69 151 9 11 16 24 16
29 0 6 5 10 10 10 6 0 10 5 10 10 0 6 21 31 47 56 126 120 290 160 488 120
103 -22 194 -95 243 -197 59 -120 60 -142 61 -728 1 -294 4 -537 6 -540 8 -7
261 -5 273 3 8 5 10 179 8 569 -4 576 -5 610 -27 687 -7 25 -13 50 -15 56 -1
6 -10 29 -19 50 -90 205 -223 322 -425 373 -58 15 -101 19 -190 16 -122 -3
-143 -6 -218 -31 -49 -16 -163 -72 -172 -83 -3 -4 -15 -14 -28 -23 -32 -22
-104 -91 -126 -122 -10 -14 -25 -34 -32 -43 -11 -15 -13 34 -14 314 l0 332
-44 31 c-25 16 -49 30 -55 30 -6 0 -11 5 -11 10 0 6 -5 10 -11 10 -5 0 -36 17
-67 39 -31 21 -66 41 -77 44 -20 7 -20 2 -20 -1123z"/>
<path d="M14717 11353 c-7 -14 0 -1796 7 -1843 23 -135 68 -233 146 -311 71
-71 143 -106 275 -134 62 -14 254 -13 312 1 32 8 71 16 86 19 34 7 144 56 172
78 18 14 20 27 20 151 0 125 -4 152 -19 127 -18 -29 -202 -98 -286 -108 -277
-31 -415 70 -435 322 0 11 3 26 8 33 5 6 6 12 1 12 -5 0 -9 29 -9 65 0 36 3
65 7 65 4 0 5 7 1 17 -9 23 -10 174 -1 199 4 12 4 25 0 28 -9 9 -9 76 0 76 4
0 4 10 0 23 -9 28 -8 420 2 435 4 7 3 12 -1 12 -5 0 -8 20 -8 45 0 25 4 45 8
45 5 0 5 5 2 11 -11 17 -13 103 -2 117 5 6 6 12 1 12 -5 0 -9 23 -9 50 0 28 4
50 8 50 5 0 5 5 2 11 -11 17 -13 103 -2 117 5 6 5 12 0 12 -5 0 -8 23 -7 50 2
53 1 54 -71 97 -11 6 -58 35 -105 64 -47 28 -88 54 -92 56 -4 2 -9 0 -11 -4z"/>
<path d="M22049 10953 c-1 -225 -1 -417 0 -428 1 -18 -1 -17 -16 5 -17 25
-143 152 -179 180 -42 33 -193 99 -264 115 -93 22 -244 25 -330 7 -36 -7 -73
-14 -82 -15 -10 -2 -21 -6 -24 -10 -4 -4 -13 -7 -20 -7 -7 0 -25 -5 -41 -12
-15 -6 -30 -12 -33 -13 -47 -16 -200 -113 -200 -126 0 -5 -4 -9 -10 -9 -5 0
-31 -23 -57 -51 -166 -177 -248 -402 -245 -667 2 -185 57 -368 155 -512 44
-64 163 -180 226 -220 56 -35 145 -79 171 -85 8 -2 35 -10 60 -18 25 -8 63
-18 85 -22 69 -12 238 -14 290 -4 86 17 90 17 95 20 3 1 10 3 15 4 15 3 48 15
67 26 10 5 25 9 33 9 8 0 15 5 15 10 0 6 6 10 13 10 36 0 192 131 255 214 l22
29 0 -149 0 -149 127 2 c71 1 135 2 144 2 14 1 16 101 15 1052 l-1 1052 -65
40 c-109 67 -211 127 -216 127 -2 0 -5 -183 -5 -407z m-499 -388 c58 -10 75
-13 78 -15 1 -2 5 -3 10 -5 88 -25 211 -109 273 -187 62 -79 99 -160 125 -273
14 -65 13 -220 -2 -290 -16 -70 -69 -197 -86 -203 -4 -2 -8 -9 -8 -17 0 -25
-130 -143 -198 -178 -200 -105 -465 -95 -637 23 -56 39 -119 102 -152 152 -15
24 -30 45 -33 48 -14 13 -58 143 -67 195 -6 37 -10 220 -4 230 2 5 6 21 7 35
3 32 8 53 16 65 3 6 9 26 13 45 4 19 10 37 14 40 3 3 17 27 31 55 37 74 151
183 233 224 38 18 76 34 85 36 9 2 17 4 17 6 0 2 24 6 85 15 25 3 46 7 47 8 4
4 119 -3 153 -9z"/>
<path d="M15290 10872 c-40 -12 -87 -38 -108 -60 -30 -32 -65 -101 -58 -118 3
-7 1 -16 -5 -19 -5 -4 -7 -9 -5 -13 2 -4 7 -25 10 -46 16 -98 111 -179 210
-178 28 0 58 2 66 4 20 5 104 48 110 57 3 4 56 38 117 76 l113 70 -25 22 c-13
13 -27 23 -31 23 -3 0 -23 14 -44 30 -21 17 -41 30 -44 30 -6 0 -64 38 -76 50
-7 7 -39 27 -82 50 -36 19 -117 31 -148 22z"/>
<path d="M8529 10846 c-2 -2 -23 -6 -46 -10 -121 -16 -299 -86 -375 -146 -20
-17 -40 -30 -43 -30 -15 0 -136 -133 -176 -196 -41 -63 -96 -176 -104 -214 -2
-8 -8 -35 -15 -60 -18 -67 -24 -125 -24 -240 1 -98 4 -141 19 -215 4 -16 7
-38 8 -47 1 -10 4 -18 8 -18 4 0 10 -15 13 -32 15 -81 115 -247 195 -326 68
-66 182 -150 208 -153 5 -1 25 -10 45 -20 57 -29 134 -54 198 -64 14 -2 41 -7
60 -10 46 -9 233 -9 290 -1 93 14 103 16 185 40 60 17 152 59 213 96 l32 20 0
145 0 146 -32 -23 c-18 -13 -35 -26 -38 -29 -6 -8 -125 -69 -133 -69 -3 0 -18
-5 -34 -12 -31 -12 -29 -12 -97 -27 -83 -20 -195 -27 -301 -20 -28 2 -106 19
-130 29 -11 4 -36 14 -55 21 -87 32 -198 122 -256 210 -82 121 -124 310 -100
454 15 93 19 111 33 138 7 15 11 27 8 27 -7 0 43 88 73 130 85 116 232 204
382 228 49 8 206 8 260 0 74 -12 165 -41 210 -69 8 -5 24 -13 35 -18 26 -11
128 -91 138 -108 18 -29 22 1 21 145 0 153 -7 182 -40 182 -8 0 -14 4 -14 9 0
5 -20 17 -45 28 -25 10 -45 21 -45 26 0 4 -8 7 -18 7 -10 0 -23 5 -28 10 -6 6
-19 12 -30 15 -10 2 -46 12 -79 21 -33 9 -69 18 -80 21 -26 6 -290 15 -296 9z"/>
<path d="M12099 10845 c-2 -2 -24 -6 -47 -10 -212 -31 -460 -197 -555 -370
-12 -22 -24 -42 -27 -45 -28 -25 -92 -214 -107 -315 -19 -127 -5 -347 26 -427
6 -16 9 -28 6 -28 -4 0 15 -49 57 -142 12 -27 25 -48 30 -48 4 0 8 -5 8 -11 0
-28 127 -169 211 -232 172 -131 464 -191 684 -142 97 21 94 21 150 46 28 12
53 22 58 21 4 -1 7 2 7 7 0 5 14 14 30 21 17 7 30 15 30 19 0 4 13 15 30 24
28 17 108 96 147 145 18 23 18 21 17 -122 -1 -141 0 -146 20 -147 90 -3 258 0
263 5 5 4 8 1582 4 1703 -1 22 -3 22 -143 20 l-143 -2 0 -143 c0 -78 -2 -142
-5 -142 -3 0 -16 15 -30 32 -38 48 -105 112 -153 144 -23 16 -44 32 -47 35
-18 21 -177 82 -253 96 -37 7 -263 14 -268 8z m296 -280 c143 -31 298 -146
373 -277 29 -53 69 -169 78 -229 7 -52 6 -193 -2 -229 -3 -14 -7 -34 -9 -46
-19 -89 -84 -209 -154 -281 -28 -29 -53 -53 -57 -53 -4 0 -15 -6 -23 -14 -36
-30 -119 -69 -191 -87 -74 -19 -218 -27 -270 -14 -14 3 -36 8 -50 11 -77 14
-193 80 -264 150 -63 63 -137 186 -151 252 -3 12 -7 32 -10 45 -15 65 -18 88
-17 147 1 87 8 144 27 210 20 66 74 180 86 180 5 0 9 6 9 13 0 21 152 157 176
157 8 0 14 4 14 9 0 5 8 11 18 14 9 3 37 13 61 22 24 9 63 19 85 22 23 3 43 7
45 9 6 5 192 -3 226 -11z"/>
<path d="M14370 10838 c-49 -8 -172 -49 -180 -59 -3 -3 -20 -14 -38 -23 -71
-36 -186 -150 -242 -238 l-40 -63 -2 180 -3 180 -47 1 c-25 1 -54 4 -62 7 -9
4 -16 3 -16 -1 0 -4 -35 -7 -77 -7 l-78 0 0 -862 c0 -688 2 -863 12 -864 56
-3 264 -1 268 3 3 2 5 209 6 459 0 391 5 514 22 564 2 6 7 24 12 40 27 103
120 227 214 288 36 23 67 42 70 43 3 0 13 4 21 7 48 21 140 36 209 34 l79 -2
4 32 c2 18 0 40 -5 48 -4 8 -4 15 1 15 5 0 8 10 6 23 -1 12 -3 64 -3 115 l-1
92 -42 -2 c-24 -1 -63 -5 -88 -10z"/>
<path d="M16468 10844 c-2 -1 -15 -5 -28 -7 -296 -56 -508 -229 -621 -509 -49
-118 -70 -236 -70 -385 -1 -289 101 -514 312 -688 95 -78 241 -144 400 -180
37 -8 139 -17 204 -18 98 -1 192 9 280 30 17 4 32 7 35 8 34 8 126 42 128 47
2 5 11 8 20 8 10 0 43 16 75 35 32 19 62 35 67 35 21 0 29 42 27 138 -1 56 2
102 6 102 4 0 3 8 -2 19 -6 10 -7 21 -4 25 15 15 -9 3 -68 -32 -98 -59 -220
-106 -324 -127 -118 -23 -375 -25 -375 -3 0 4 -6 5 -14 2 -21 -8 -154 47 -219
90 -124 82 -215 225 -243 379 -4 18 -1 27 8 28 7 0 314 1 683 2 439 1 670 5
670 12 0 6 3 15 6 20 10 21 1 226 -15 315 -18 98 -88 267 -139 335 -32 41
-137 146 -175 175 -80 60 -192 106 -322 134 -55 12 -293 20 -302 10z m263
-273 c26 -6 59 -16 75 -22 16 -7 33 -13 37 -13 4 -1 11 -6 15 -12 4 -6 17 -14
29 -18 12 -4 48 -35 80 -70 85 -90 139 -209 146 -318 1 -16 6 -28 10 -28 5 0
6 -4 3 -8 -4 -6 -1040 -10 -1067 -3 -6 1 9 73 29 137 22 70 80 161 145 226 38
37 73 66 78 62 5 -3 9 -1 9 4 0 6 19 17 43 27 23 9 42 16 42 14 0 -1 9 3 20 9
12 5 41 13 65 17 25 4 46 8 48 9 6 7 151 -3 193 -13z"/>
<path d="M18550 10843 c-91 -11 -224 -65 -299 -121 -54 -41 -123 -111 -161
-167 -19 -27 -38 -51 -42 -53 -5 -2 -8 -10 -8 -18 0 -8 -4 -14 -9 -14 -5 0 -9
77 -8 173 l1 172 -30 1 c-16 0 -35 4 -42 8 -7 4 -12 4 -12 -1 0 -4 -45 -7
-100 -6 -72 2 -100 -1 -101 -10 0 -7 -2 -396 -2 -864 l-2 -853 30 -1 c95 -3
247 0 252 5 3 3 7 216 8 473 1 257 3 468 4 468 2 0 4 11 6 25 11 107 98 275
172 333 13 10 30 25 37 33 8 8 19 14 25 14 6 0 11 3 11 8 0 13 105 57 165 70
17 4 69 7 118 7 l87 0 1 35 c1 19 2 93 3 163 l1 128 -40 -3 c-22 -1 -51 -4
-65 -5z"/>
<path d="M19419 10846 c-2 -2 -24 -6 -49 -9 -25 -3 -70 -14 -100 -23 -30 -10
-57 -18 -60 -19 -3 -1 -22 -9 -44 -18 -21 -9 -42 -17 -47 -17 -5 0 -9 -4 -9
-8 0 -5 -17 -16 -37 -26 -44 -21 -46 -23 -134 -107 -144 -140 -223 -307 -255
-539 -16 -121 -5 -316 23 -390 4 -8 7 -19 7 -25 5 -44 84 -208 118 -245 10
-11 16 -20 12 -20 -12 0 142 -146 186 -176 215 -145 516 -202 790 -149 56 10
126 28 135 34 6 3 15 6 21 7 22 3 139 58 194 91 l55 33 1 130 c0 99 -3 130
-12 130 -8 0 -34 -13 -60 -30 -96 -60 -271 -122 -394 -137 -68 -9 -233 -8
-280 0 -63 12 -74 15 -131 36 -162 61 -289 193 -345 357 -25 75 -28 114 -7
115 10 0 317 1 684 2 l665 0 1 21 c4 60 3 216 -1 252 -2 23 -12 70 -21 105 -9
35 -18 71 -20 80 -7 32 -65 150 -99 202 -40 61 -122 148 -181 193 -43 33 -178
103 -211 109 -10 2 -20 4 -21 5 -2 2 -6 3 -10 5 -30 8 -62 16 -88 21 -33 7
-270 16 -276 10z m226 -270 c42 -8 135 -46 170 -70 119 -80 212 -238 230 -391
l5 -41 -532 0 c-591 1 -546 -5 -521 69 6 20 10 37 6 37 -3 0 0 7 7 15 7 8 9
15 5 15 -4 0 0 11 9 25 9 14 14 25 11 25 -2 0 4 15 14 34 11 18 25 44 33 57
26 46 139 148 196 176 106 52 249 71 367 49z"/>
<path d="M673 8399 c-11 -4 -33 -9 -49 -10 -16 -2 -33 -6 -39 -10 -5 -3 -28
-12 -50 -19 -45 -14 -138 -61 -143 -72 -2 -5 -8 -8 -14 -8 -28 0 -165 -128
-217 -204 -96 -139 -143 -293 -143 -463 0 -35 1 -64 2 -65 1 -2 3 -14 5 -28
17 -122 48 -205 122 -322 39 -63 134 -165 183 -198 12 -8 32 -22 44 -30 11 -9
44 -27 71 -40 28 -14 53 -29 57 -35 4 -5 8 -7 8 -4 0 4 28 -2 63 -13 81 -25
133 -32 237 -32 92 0 174 10 199 24 9 4 20 8 24 8 21 0 160 62 165 75 2 4 8 7
13 7 8 0 77 41 104 63 6 4 48 32 95 62 47 29 91 59 98 65 6 6 12 7 12 3 0 -4
4 -3 8 3 6 9 49 38 252 169 91 59 339 221 360 235 8 5 34 22 57 37 l42 27 -27
19 c-15 10 -106 70 -202 132 -96 63 -179 117 -185 122 -5 4 -22 14 -37 22 -16
8 -28 18 -28 23 0 4 -5 8 -11 8 -6 0 -36 18 -68 40 -31 22 -62 40 -68 40 -6 0
-14 7 -17 16 -3 8 -10 13 -15 10 -5 -3 -15 1 -22 10 -7 8 -26 22 -43 31 -17 9
-33 19 -36 22 -3 4 -23 18 -45 31 -22 13 -44 28 -50 32 -96 76 -298 179 -401
205 -71 17 -275 25 -311 12z"/>
</g>
</svg>
