<?xml version="1.0" standalone="no"?>
<!DOCTYPE svg PUBLIC "-//W3C//DTD SVG 20010904//EN"
 "http://www.w3.org/TR/2001/REC-SVG-20010904/DTD/svg10.dtd">
<svg version="1.0" xmlns="http://www.w3.org/2000/svg"
 width="2117.000000pt" height="2117.000000pt" viewBox="0 0 2117.000000 2117.000000"
 preserveAspectRatio="xMidYMid meet">
<metadata>
Created by potrace 1.14, written by Peter Selinger 2001-2017
</metadata>
<g transform="translate(0.000000,2117.000000) scale(0.100000,-0.100000)"
fill="#000000" stroke="none">
<path d="M9860 21130 c-1884 -52 -3761 -267 -5757 -661 -170 -33 -351 -71
-404 -84 -768 -194 -1380 -780 -1633 -1563 -91 -282 -100 -348 -201 -1522
-278 -3244 -386 -5753 -305 -7098 76 -1253 387 -2507 910 -3672 81 -178 328
-661 431 -840 615 -1073 1415 -2029 2400 -2872 1197 -1023 2660 -1856 4329
-2463 102 -37 353 -124 559 -193 l374 -125 56 17 c169 52 743 244 915 306
1494 539 2971 1396 4141 2400 339 291 768 704 1050 1010 1436 1558 2359 3391
2734 5432 85 464 122 776 153 1303 17 286 17 1588 0 2010 -59 1482 -153 2818
-348 4980 -86 962 -93 1011 -166 1265 -180 625 -621 1165 -1182 1447 -242 121
-370 162 -776 243 -1909 382 -3716 601 -5545 670 -376 14 -1369 20 -1735 10z
m1595 -1160 c1825 -54 3641 -266 5534 -646 357 -72 440 -98 555 -174 210 -141
347 -351 410 -630 36 -155 220 -2386 296 -3580 11 -173 22 -349 25 -390 3 -41
10 -160 15 -265 6 -104 17 -314 25 -465 51 -946 69 -1558 69 -2340 0 -843 -16
-1170 -80 -1650 -203 -1519 -740 -2885 -1609 -4095 -302 -420 -591 -759 -1025
-1199 -573 -581 -985 -937 -1565 -1352 -326 -232 -899 -594 -915 -577 -5 4
-435 845 -955 1868 -2548 5005 -2993 5880 -3059 6007 l-71 137 115 116 c126
128 204 182 406 283 502 251 1056 341 1607 262 304 -44 592 -130 1157 -345
777 -295 1079 -373 1565 -400 450 -26 1107 161 1830 520 284 141 455 238 703
401 l174 114 -7 323 c-20 1025 -61 1843 -177 3475 -12 177 -25 322 -28 322 -3
0 -59 -30 -125 -66 -180 -98 -562 -284 -715 -347 -497 -205 -950 -321 -1475
-379 -160 -17 -796 -17 -965 0 -517 54 -971 164 -1526 372 -100 38 -354 138
-566 224 -607 245 -840 328 -1143 406 -381 99 -592 124 -1035 124 -431 0 -708
-28 -1088 -109 -383 -83 -822 -243 -1119 -408 l-83 -46 -1 102 c-1 56 -4 260
-8 452 l-6 350 -31 65 c-17 36 -47 82 -65 102 -28 30 -1564 1196 -1650 1252
-15 9 -41 21 -58 26 l-31 9 0 -645 0 -644 40 0 40 0 0 -120 0 -120 115 0 115
0 0 -115 0 -115 230 0 230 0 0 -28 c0 -15 -6 -34 -12 -41 -11 -11 -10 -12 0
-7 10 6 12 -8 11 -66 -1 -40 -1 -128 0 -195 l1 -123 120 0 120 0 0 -228 c0
-169 -3 -232 -12 -241 -9 -10 -9 -12 -1 -7 9 5 11 -22 10 -109 l-2 -115 50 -1
c28 -1 80 -2 116 -2 l67 -1 0 -63 c0 -34 -4 -60 -9 -57 -5 3 -9 0 -9 -5 0 -6
5 -11 12 -11 6 0 8 -3 4 -7 -4 -5 -14 0 -21 10 -7 10 -16 14 -19 8 -4 -5 -2
-12 4 -16 6 -4 8 -11 4 -16 -3 -5 -10 -7 -15 -4 -5 4 -9 1 -9 -6 0 -7 -7 -4
-15 7 -13 17 -14 18 -15 1 0 -10 6 -20 14 -23 8 -3 17 -12 20 -20 3 -9 1 -12
-4 -9 -6 3 -10 -1 -10 -9 0 -8 -8 -20 -17 -25 -14 -8 -15 -10 -3 -11 13 0 13
-2 0 -9 -8 -6 -18 -7 -22 -5 -5 3 -7 0 -6 -8 2 -7 -3 -12 -10 -10 -8 1 -11 -2
-8 -7 3 -5 -3 -19 -13 -32 -15 -18 -16 -28 -8 -46 6 -13 14 -23 18 -23 8 0 23
31 20 44 -1 5 6 3 15 -5 10 -8 15 -9 11 -2 -4 6 -3 14 3 18 6 4 7 12 3 18 -11
17 -12 36 -3 42 4 2 7 -5 6 -17 0 -12 4 -23 10 -25 7 -2 10 11 9 37 -1 22 1
43 5 45 4 3 6 -9 5 -25 -1 -17 2 -33 8 -37 5 -3 7 -1 4 4 -4 6 2 21 13 33 11
12 17 27 13 33 -3 6 -1 7 5 3 20 -12 14 -80 -7 -98 -11 -9 -22 -13 -26 -10 -3
4 -3 -2 1 -12 6 -15 4 -17 -7 -11 -12 7 -12 6 -1 -7 7 -9 21 -15 31 -13 14 3
17 -4 16 -33 -1 -25 -6 -36 -15 -34 -7 2 -10 -3 -7 -12 4 -9 2 -18 -4 -21 -5
-4 -9 -3 -8 2 5 30 -10 38 -38 20 -6 -4 -14 -3 -17 2 -4 5 -2 12 4 16 6 4 8
11 4 16 -3 5 0 8 8 7 7 -2 12 3 10 10 -1 8 2 11 7 8 5 -4 12 -2 15 3 11 17
-12 22 -27 7 -8 -8 -17 -13 -21 -11 -3 3 -4 2 -1 -2 3 -3 -1 -16 -9 -28 -13
-20 9 -66 300 -636 174 -338 385 -751 471 -919 86 -168 499 -975 918 -1795
419 -819 1157 -2262 1640 -3205 483 -943 1131 -2210 1440 -2815 310 -605 773
-1509 1029 -2010 l466 -910 -118 -116 -117 -116 -152 -66 c-328 -143 -705
-288 -1104 -427 l-197 -69 -143 49 c-1072 359 -2152 875 -3059 1464 -708 459
-1280 924 -1855 1507 -347 353 -553 591 -832 963 -945 1260 -1524 2696 -1727
4286 -57 441 -67 634 -73 1387 -9 1079 31 2135 147 3868 88 1305 252 3242 289
3415 35 158 103 303 201 425 65 81 344 354 400 392 138 93 212 116 650 202
1696 335 3303 535 4925 612 605 28 1471 36 2060 19z m-4748 -5145 c0 -8 -4
-12 -9 -9 -5 3 -6 10 -3 15 9 13 12 11 12 -6z m-665 -179 c-12 -7 -20 -15 -17
-18 4 -3 2 -8 -2 -11 -5 -3 -9 4 -9 16 0 16 6 22 25 24 l26 1 -23 -12z m533 4
c4 -6 1 -9 -7 -8 -7 2 -12 -3 -10 -10 1 -8 -2 -11 -8 -7 -8 5 -7 11 1 21 14
17 16 17 24 4z m-495 -4 c0 -2 -8 -10 -17 -17 -16 -13 -17 -12 -4 4 13 16 21
21 21 13z m137 -61 c0 -8 -4 -12 -9 -9 -5 3 -6 10 -3 15 9 13 12 11 12 -6z
m320 -2 c0 -9 -4 -10 -14 -2 -7 6 -13 12 -13 14 0 1 6 2 13 2 8 0 14 -6 14
-14z m-23 -19 c3 -8 2 -12 -4 -9 -6 3 -10 10 -10 16 0 14 7 11 14 -7z m-408
-9 c-3 -23 -22 -39 -31 -26 -3 7 -1 10 6 9 7 -2 14 3 15 10 2 19 4 22 8 22 2
0 3 -7 2 -15z m-66 -39 c0 -2 -8 -10 -17 -17 -16 -13 -17 -12 -4 4 13 16 21
21 21 13z m100 -20 c-6 -6 -4 -16 8 -30 17 -21 17 -21 -4 -3 -23 19 -27 44 -7
44 9 0 10 -4 3 -11z m-90 -16 c-6 -11 -13 -20 -16 -20 -2 0 0 9 6 20 6 11 13
20 16 20 2 0 0 -9 -6 -20z m60 16 c0 -2 -8 -10 -17 -17 -16 -13 -17 -12 -4 4
13 16 21 21 21 13z m13 -51 c-3 -9 -8 -14 -10 -11 -3 3 -2 9 2 15 9 16 15 13
8 -4z m-70 -15 c9 -11 8 -11 -7 0 -23 18 -19 18 -42 0 -17 -14 -18 -14 -6 2
15 19 37 18 55 -2z m-109 -9 c3 -5 -2 -15 -12 -22 -15 -12 -16 -12 -5 2 7 9
10 19 6 22 -3 4 -4 7 0 7 3 0 8 -4 11 -9z m102 -35 c-2 -38 -12 -39 -12 -1 0
18 3 32 7 30 3 -3 5 -15 5 -29z"/>
<path d="M9895 18243 c-406 -9 -1007 -38 -1430 -68 -436 -32 -1389 -126 -1548
-153 l-41 -7 119 -81 c66 -45 212 -143 325 -219 113 -76 291 -196 395 -266
l191 -129 109 30 c513 140 1093 188 1620 134 409 -41 858 -160 1440 -382 116
-44 314 -119 440 -167 477 -181 840 -297 1162 -369 1231 -277 2405 -130 3543
443 l115 57 -2 55 c-2 50 -44 532 -47 536 -5 8 -581 113 -971 177 -1851 306
-3716 447 -5420 409z"/>
<path d="M5497 15869 c-3 -12 -10 -19 -15 -15 -5 3 -9 -1 -9 -9 0 -11 4 -12
13 -4 8 7 13 6 16 -3 3 -7 5 2 6 20 1 37 -3 41 -11 11z"/>
<path d="M5530 15119 c0 -11 5 -17 10 -14 6 4 7 11 4 17 -4 6 -2 8 4 4 6 -3
13 -2 17 4 3 5 -3 10 -14 10 -15 0 -21 -6 -21 -21z"/>
<path d="M5736 15098 c5 -7 2 -9 -7 -6 -10 4 -15 -1 -16 -13 -2 -23 -26 -49
-45 -49 -11 0 -11 -2 0 -9 11 -6 10 -10 -5 -16 -10 -5 -22 -7 -26 -6 -5 1 -6
-3 -3 -8 4 -5 2 -12 -4 -16 -17 -10 -11 -24 9 -22 10 0 17 6 14 12 -2 7 12 29
32 50 19 22 35 45 35 53 0 7 4 11 8 8 4 -2 13 4 20 15 10 16 9 19 -4 19 -9 0
-12 -5 -8 -12z"/>
<path d="M5695 15001 c-3 -5 -2 -12 3 -15 5 -3 9 1 9 9 0 17 -3 19 -12 6z"/>
<path d="M5727 14926 c-3 -8 -2 -18 2 -21 11 -6 36 23 27 32 -3 3 -6 0 -6 -8
0 -11 -2 -12 -9 -1 -7 11 -9 11 -14 -2z"/>
<path d="M5736 14882 c-3 -5 1 -9 9 -9 8 0 12 4 9 9 -3 4 -7 8 -9 8 -2 0 -6
-4 -9 -8z"/>
<path d="M5881 14874 c0 -11 3 -14 6 -6 3 7 2 16 -1 19 -3 4 -6 -2 -5 -13z"/>
<path d="M5906 14878 c4 -11 0 -20 -10 -24 -15 -6 -15 -7 1 -19 15 -11 14 -14
-13 -29 -20 -11 -23 -15 -9 -14 11 2 30 14 42 28 13 14 23 21 22 15 -1 -5 -1
-23 0 -39 1 -24 4 -27 13 -18 9 9 10 19 1 42 -9 23 -8 29 0 23 7 -3 8 -2 4 3
-5 5 -13 9 -17 9 -5 0 -16 9 -25 20 -12 16 -14 16 -9 3z m18 -39 c-3 -5 -10
-7 -15 -3 -5 3 -7 10 -3 15 3 5 10 7 15 3 5 -3 7 -10 3 -15z"/>
<path d="M5930 14880 c0 -5 5 -10 11 -10 5 0 7 5 4 10 -3 6 -8 10 -11 10 -2 0
-4 -4 -4 -10z"/>
<path d="M5963 14869 c-1 -10 4 -19 10 -19 9 0 9 -2 0 -8 -6 -4 -9 -19 -6 -34
8 -41 23 -23 23 27 0 43 -24 73 -27 34z"/>
<path d="M5861 14864 c0 -11 3 -14 6 -6 3 7 2 16 -1 19 -3 4 -6 -2 -5 -13z"/>
<path d="M5807 14852 c-13 -14 -14 -21 -5 -30 9 -9 9 -12 0 -13 -7 -1 -17 -2
-24 -3 -7 0 -13 -17 -13 -38 -1 -21 1 -35 4 -32 3 3 6 15 6 26 0 11 10 27 22
35 19 13 23 12 43 -9 14 -15 19 -17 15 -6 -4 9 -18 24 -31 33 -14 9 -22 21
-18 27 4 7 10 5 16 -6 10 -18 28 -22 28 -5 0 5 -4 7 -10 4 -9 -6 -14 8 -11 28
2 11 -5 8 -22 -11z"/>
<path d="M5863 14825 c0 -7 6 -11 14 -8 7 3 13 6 13 8 0 2 -6 5 -13 8 -8 3
-14 -1 -14 -8z"/>
<path d="M5917 14813 c-5 -7 -6 -17 -2 -22 3 -5 0 -13 -6 -17 -7 -4 -9 -3 -6
4 5 6 -1 8 -14 5 -13 -4 -17 -8 -9 -13 12 -8 -40 -23 -75 -22 -16 1 -16 0 -3
-4 22 -7 34 -44 17 -55 -16 -9 -32 -1 -23 12 3 5 10 7 15 4 5 -3 6 1 3 10 -6
14 -8 14 -19 -2 -9 -13 -10 -22 -3 -30 8 -10 6 -13 -6 -13 -17 0 -22 -15 -7
-25 6 -3 15 4 21 15 6 11 15 20 21 20 6 0 8 -4 4 -9 -3 -5 0 -13 6 -17 8 -4 9
-3 5 4 -4 7 -3 12 3 12 5 0 17 3 27 7 13 5 15 3 10 -8 -4 -8 0 -5 8 5 16 20
16 20 16 0 1 -19 1 -19 15 0 13 17 13 22 0 36 -24 27 -16 67 9 43 3 -4 14 -8
22 -9 14 -2 14 -1 1 14 -8 9 -17 28 -19 42 -2 17 -6 21 -11 13z m-31 -80 c7
-10 13 -22 13 -28 0 -5 -4 -2 -10 9 -9 15 -13 16 -21 5 -8 -11 -9 -10 -4 3 3
12 1 15 -9 12 -8 -3 -11 -13 -9 -22 4 -13 3 -13 -6 2 -10 15 -9 20 1 27 21 13
30 11 45 -8z"/>
<path d="M5795 14779 c-4 -6 -5 -12 -2 -15 2 -3 7 2 10 11 7 17 1 20 -8 4z"/>
<path d="M5817 14777 c-3 -8 1 -14 8 -14 7 0 11 6 8 14 -3 7 -6 13 -8 13 -2 0
-5 -6 -8 -13z"/>
<path d="M5854 14646 c1 -8 5 -18 8 -22 4 -3 5 1 4 10 -1 8 -5 18 -8 22 -4 3
-5 -1 -4 -10z"/>
<path d="M5939 14473 c-19 -21 -27 -32 -19 -27 8 6 27 10 41 9 21 -1 26 2 25
21 -2 37 -10 36 -47 -3z m37 10 c-2 -9 -11 -17 -20 -19 -17 -2 -17 -2 0 17 21
23 23 23 20 2z"/>
<path d="M4566 13490 c-3 -25 -12 -216 -21 -425 -8 -209 -17 -432 -20 -495
-27 -590 -24 -1671 5 -2081 77 -1071 377 -2121 870 -3039 751 -1399 1960
-2576 3560 -3462 181 -101 510 -271 514 -267 2 2 -1100 2211 -2449 4909 -2413
4826 -2453 4904 -2459 4860z"/>
<path d="M16565 10013 c-278 -254 -740 -549 -1148 -733 -368 -167 -718 -271
-1102 -331 -177 -27 -619 -37 -842 -20 -535 43 -1034 168 -1650 414 l-211 84
63 -121 c53 -102 1475 -2882 2044 -3998 95 -186 175 -338 178 -338 9 0 133
102 298 244 359 311 709 701 1025 1146 701 986 1164 2123 1354 3330 30 191 49
345 45 358 -2 6 -26 -10 -54 -35z"/>
</g>
</svg>
