<?xml version="1.0" standalone="no"?>
<!DOCTYPE svg PUBLIC "-//W3C//DTD SVG 20010904//EN"
 "http://www.w3.org/TR/2001/REC-SVG-20010904/DTD/svg10.dtd">
<svg version="1.0" xmlns="http://www.w3.org/2000/svg"
 width="225.000000pt" height="225.000000pt" viewBox="0 0 225.000000 225.000000"
 preserveAspectRatio="xMidYMid meet">
<metadata>
Created by potrace 1.14, written by Peter Selinger 2001-2017
</metadata>
<g transform="translate(0.000000,225.000000) scale(0.100000,-0.100000)"
fill="#000000" stroke="none">
<path d="M927 2234 c-229 -41 -435 -149 -599 -315 -482 -484 -426 -1284 119
-1693 450 -338 1076 -294 1474 103 213 214 329 493 329 796 0 550 -391 1015
-934 1110 -108 18 -284 18 -389 -1z m-395 -501 c9 -10 107 -175 218 -368 111
-192 237 -411 281 -486 43 -75 79 -146 79 -159 0 -23 -126 -256 -158 -292 -8
-10 -28 -18 -43 -18 -31 0 -43 14 -112 135 -25 44 -149 260 -276 480 -127 220
-231 408 -231 418 0 15 135 261 162 295 15 18 62 15 80 -5z m583 9 c15 -10 34
-42 178 -292 71 -124 181 -315 245 -425 64 -110 129 -225 145 -255 l30 -56
-83 -144 c-45 -80 -88 -148 -94 -152 -6 -4 -23 -8 -38 -8 -33 0 -22 -16 -230
345 -86 149 -208 361 -272 471 -64 111 -116 208 -116 217 0 12 104 202 156
285 14 22 57 30 79 14z m591 0 c10 -7 39 -54 192 -317 89 -153 102 -180 101
-202 0 -10 -37 -81 -82 -158 -75 -127 -85 -140 -113 -143 -19 -2 -36 3 -46 15
-24 28 -288 491 -288 507 0 12 59 121 137 249 28 47 39 57 61 57 15 0 32 -4
38 -8z"/>
</g>
</svg>
